HIERARCHY
ROOT Hips
{
	OFFSET 0.000000 71.427986 0.000000
	CHANNELS 6 Xposition Yposition Zposition Xrotation Yrotation Zrotation
	JOINT Pelvis
	{
		OFFSET 0.000000 0.000000 0.000000
		CHANNELS 3 Xrotation Yrotation Zrotation
		JOINT LeftUpLeg
		{
			OFFSET 6.797100 -2.508499 -1.318700
			CHANNELS 3 Xrotation Yrotation Zrotation
			JOINT LeftLeg
			{
				OFFSET 0.069008 -29.241863 0.690200
				CHANNELS 3 Xrotation Yrotation Zrotation
				JOINT LeftFoot
				{
					OFFSET -0.069008 -29.568123 -0.266800
					CHANNELS 3 Xrotation Yrotation Zrotation
					JOINT LeftToeBase
					{
						OFFSET 3.145500 -8.631000 16.059900
						CHANNELS 3 Xrotation Yrotation Zrotation
						End Site
						{
							OFFSET 0.000000 18.501587 0.000000
						}
					}
				}
			}
			JOINT Left_ShortSleeve
			{
				OFFSET 0.265923 -10.480953 1.153800
				CHANNELS 3 Xrotation Yrotation Zrotation
				End Site
				{
					OFFSET 1.725763 19.823879 0.000000
				}
			}
		}
		JOINT RightUpLeg
		{
			OFFSET -6.797100 -2.508499 -1.318700
			CHANNELS 3 Xrotation Yrotation Zrotation
			JOINT RightLeg
			{
				OFFSET -0.082453 -29.241932 0.688000
				CHANNELS 3 Xrotation Yrotation Zrotation
				JOINT RightFoot
				{
					OFFSET 0.082453 -29.568058 -0.264600
					CHANNELS 3 Xrotation Yrotation Zrotation
					JOINT RightToeBase
					{
						OFFSET -3.115300 -8.682800 16.113400
						CHANNELS 3 Xrotation Yrotation Zrotation
						End Site
						{
							OFFSET 0.000000 18.567114 0.000000
						}
					}
				}
			}
			JOINT Right_ShortSleeve
			{
				OFFSET -0.265923 -10.480953 1.153800
				CHANNELS 3 Xrotation Yrotation Zrotation
				End Site
				{
					OFFSET -1.725766 19.823910 0.000000
				}
			}
		}
	}
	JOINT Spine
	{
		OFFSET 0.000000 13.368103 0.470500
		CHANNELS 3 Xrotation Yrotation Zrotation
		JOINT Spine1
		{
			OFFSET 0.147000 13.837402 0.538800
			CHANNELS 3 Xrotation Yrotation Zrotation
			JOINT Spine2
			{
				OFFSET 0.168000 16.242897 -1.435500
				CHANNELS 3 Xrotation Yrotation Zrotation
				JOINT Neck
				{
					OFFSET 0.217200 18.631500 -1.679100
					CHANNELS 3 Xrotation Yrotation Zrotation
					JOINT Head
					{
						OFFSET 0.000000 6.599396 1.385900
						CHANNELS 3 Xrotation Yrotation Zrotation
						JOINT Hat
						{
							OFFSET -0.532200 27.220596 -10.096100
							CHANNELS 3 Xrotation Yrotation Zrotation
							End Site
							{
								OFFSET 0.000000 22.029861 0.000000
							}
						}
						JOINT HairD
						{
							OFFSET -10.777400 17.437393 -1.325900
							CHANNELS 3 Xrotation Yrotation Zrotation
							JOINT HairD1
							{
								OFFSET -3.290299 -11.051193 1.062200
								CHANNELS 3 Xrotation Yrotation Zrotation
								End Site
								{
									OFFSET 0.000000 11.579437 0.000000
								}
							}
						}
						JOINT HairB
						{
							OFFSET -10.777400 17.437393 1.467900
							CHANNELS 3 Xrotation Yrotation Zrotation
							JOINT HairB1
							{
								OFFSET -1.561200 -12.956299 3.590200
								CHANNELS 3 Xrotation Yrotation Zrotation
								End Site
								{
									OFFSET 0.000000 13.534866 0.000000
								}
							}
						}
						JOINT HairA
						{
							OFFSET 9.713100 17.437393 1.467900
							CHANNELS 3 Xrotation Yrotation Zrotation
							JOINT HairA1
							{
								OFFSET 1.561200 -12.956299 3.590200
								CHANNELS 3 Xrotation Yrotation Zrotation
								End Site
								{
									OFFSET 0.000000 13.534866 0.000000
								}
							}
						}
						JOINT HairC
						{
							OFFSET 9.713100 17.437393 -1.325900
							CHANNELS 3 Xrotation Yrotation Zrotation
							JOINT HairC1
							{
								OFFSET 3.290300 -11.051193 1.062200
								CHANNELS 3 Xrotation Yrotation Zrotation
								End Site
								{
									OFFSET 0.000000 11.579437 0.000000
								}
							}
						}
					}
				}
				JOINT LeftShoulder
				{
					OFFSET 5.101800 15.108002 -2.763700
					CHANNELS 3 Xrotation Yrotation Zrotation
					JOINT LeftArm
					{
						OFFSET 9.825497 2.506317 -1.597400
						CHANNELS 3 Xrotation Yrotation Zrotation
						JOINT LeftForeArm
						{
							OFFSET 21.966244 0.000000 0.000000
							CHANNELS 3 Xrotation Yrotation Zrotation
							JOINT LeftHand
							{
								OFFSET 33.879036 0.000000 0.000000
								CHANNELS 3 Xrotation Yrotation Zrotation
								JOINT LeftHandThumb1
								{
									OFFSET 6.715286 -2.359680 3.363841
									CHANNELS 3 Xrotation Yrotation Zrotation
									JOINT LeftHandThumb2
									{
										OFFSET 2.507072 -1.447464 1.447461
										CHANNELS 3 Xrotation Yrotation Zrotation
										JOINT LeftHandThumb3
										{
											OFFSET 2.898338 -1.673355 1.673357
											CHANNELS 3 Xrotation Yrotation Zrotation
											End Site
											{
												OFFSET -0.295959 3.727692 -0.131651
											}
										}
									}
								}
								JOINT LeftHandIndex1
								{
									OFFSET 14.190811 -0.254547 3.840278
									CHANNELS 3 Xrotation Yrotation Zrotation
									JOINT LeftHandIndex2
									{
										OFFSET 3.551727 0.000000 -0.000000
										CHANNELS 3 Xrotation Yrotation Zrotation
										JOINT LeftHandIndex3
										{
											OFFSET 2.894196 0.000000 0.000000
											CHANNELS 3 Xrotation Yrotation Zrotation
											End Site
											{
												OFFSET -1.000603 2.690872 0.366626
											}
										}
									}
								}
								JOINT LeftHandMiddle1
								{
									OFFSET 13.776489 0.000000 0.000000
									CHANNELS 3 Xrotation Yrotation Zrotation
									JOINT LeftHandMiddle2
									{
										OFFSET 3.438232 0.000000 0.000000
										CHANNELS 3 Xrotation Yrotation Zrotation
										JOINT LeftHandMiddle3
										{
											OFFSET 3.691551 0.000000 0.000000
											CHANNELS 3 Xrotation Yrotation Zrotation
											End Site
											{
												OFFSET -1.082298 3.499527 0.457670
											}
										}
									}
								}
								JOINT LeftHandRing1
								{
									OFFSET 13.966164 -0.268127 -3.067488
									CHANNELS 3 Xrotation Yrotation Zrotation
									JOINT LeftHandRing2
									{
										OFFSET 3.162567 0.000000 0.000000
										CHANNELS 3 Xrotation Yrotation Zrotation
										JOINT LeftHandRing3
										{
											OFFSET 3.324348 0.000000 0.000000
											CHANNELS 3 Xrotation Yrotation Zrotation
											End Site
											{
												OFFSET -0.861900 3.184998 0.405154
											}
										}
									}
								}
								JOINT LeftHandPinky1
								{
									OFFSET 13.131393 -0.168503 -5.746925
									CHANNELS 3 Xrotation Yrotation Zrotation
									JOINT LeftHandPinky2
									{
										OFFSET 2.849182 0.000000 0.000000
										CHANNELS 3 Xrotation Yrotation Zrotation
										JOINT LeftHandPinky3
										{
											OFFSET 2.805038 0.000000 0.000000
											CHANNELS 3 Xrotation Yrotation Zrotation
											End Site
											{
												OFFSET -0.882500 2.642609 0.325652
											}
										}
									}
								}
							}
							JOINT Left_Sleeve
							{
								OFFSET 6.592125 -0.646545 0.805568
								CHANNELS 3 Xrotation Yrotation Zrotation
								End Site
								{
									OFFSET -0.000179 20.275787 -0.000000
								}
							}
						}
					}
				}
				JOINT RightShoulder
				{
					OFFSET -5.731700 15.108002 -2.763700
					CHANNELS 3 Xrotation Yrotation Zrotation
					JOINT RightArm
					{
						OFFSET -9.825497 2.506317 -1.597400
						CHANNELS 3 Xrotation Yrotation Zrotation
						JOINT RightForeArm
						{
							OFFSET -21.966242 0.000000 0.000000
							CHANNELS 3 Xrotation Yrotation Zrotation
							JOINT RightHand
							{
								OFFSET -33.879032 0.000000 0.000000
								CHANNELS 3 Xrotation Yrotation Zrotation
								JOINT RightHandThumb1
								{
									OFFSET -6.715286 -2.359680 3.363841
									CHANNELS 3 Xrotation Yrotation Zrotation
									JOINT RightHandThumb2
									{
										OFFSET -2.507072 -1.447464 1.447461
										CHANNELS 3 Xrotation Yrotation Zrotation
										JOINT RightHandThumb3
										{
											OFFSET -2.898338 -1.673355 1.673357
											CHANNELS 3 Xrotation Yrotation Zrotation
											End Site
											{
												OFFSET 0.295959 3.727692 -0.131651
											}
										}
									}
								}
								JOINT RightHandIndex1
								{
									OFFSET -14.190811 -0.254547 3.840278
									CHANNELS 3 Xrotation Yrotation Zrotation
									JOINT RightHandIndex2
									{
										OFFSET -3.551727 0.000000 -0.000000
										CHANNELS 3 Xrotation Yrotation Zrotation
										JOINT RightHandIndex3
										{
											OFFSET -2.894196 0.000000 0.000000
											CHANNELS 3 Xrotation Yrotation Zrotation
											End Site
											{
												OFFSET 1.000603 2.690872 0.366626
											}
										}
									}
								}
								JOINT RightHandMiddle1
								{
									OFFSET -13.776489 0.000000 0.000000
									CHANNELS 3 Xrotation Yrotation Zrotation
									JOINT RightHandMiddle2
									{
										OFFSET -3.438232 0.000000 0.000000
										CHANNELS 3 Xrotation Yrotation Zrotation
										JOINT RightHandMiddle3
										{
											OFFSET -3.691551 0.000000 0.000000
											CHANNELS 3 Xrotation Yrotation Zrotation
											End Site
											{
												OFFSET 1.082298 3.499527 0.457670
											}
										}
									}
								}
								JOINT RightHandRing1
								{
									OFFSET -13.966164 -0.268127 -3.067488
									CHANNELS 3 Xrotation Yrotation Zrotation
									JOINT RightHandRing2
									{
										OFFSET -3.162567 0.000000 0.000000
										CHANNELS 3 Xrotation Yrotation Zrotation
										JOINT RightHandRing3
										{
											OFFSET -3.324348 0.000000 0.000000
											CHANNELS 3 Xrotation Yrotation Zrotation
											End Site
											{
												OFFSET 0.861900 3.184998 0.405154
											}
										}
									}
								}
								JOINT RightHandPinky1
								{
									OFFSET -13.131393 -0.168503 -5.746925
									CHANNELS 3 Xrotation Yrotation Zrotation
									JOINT RightHandPinky2
									{
										OFFSET -2.849182 0.000000 0.000000
										CHANNELS 3 Xrotation Yrotation Zrotation
										JOINT RightHandPinky3
										{
											OFFSET -2.805038 0.000000 0.000000
											CHANNELS 3 Xrotation Yrotation Zrotation
											End Site
											{
												OFFSET 0.882500 2.642609 0.325652
											}
										}
									}
								}
							}
							JOINT Right_Sleeve
							{
								OFFSET -6.592125 -0.646545 0.805568
								CHANNELS 3 Xrotation Yrotation Zrotation
								End Site
								{
									OFFSET 0.000179 20.275787 -0.000000
								}
							}
						}
					}
				}
				JOINT Bind_Right_JacketString
				{
					OFFSET -3.534800 11.969597 7.200700
					CHANNELS 3 Xrotation Yrotation Zrotation
					JOINT Bind_Right_JacketString1
					{
						OFFSET -0.319900 -6.102600 2.794100
						CHANNELS 3 Xrotation Yrotation Zrotation
						End Site
						{
							OFFSET 0.000000 6.719452 0.000000
						}
					}
				}
				JOINT Bind_Left_JacketString
				{
					OFFSET 2.904800 11.969597 7.200700
					CHANNELS 3 Xrotation Yrotation Zrotation
					JOINT Bind_Left_JacketString1
					{
						OFFSET 0.364800 -5.904503 3.186800
						CHANNELS 3 Xrotation Yrotation Zrotation
						End Site
						{
							OFFSET 0.000000 6.719513 0.000000
						}
					}
				}
				JOINT HairE
				{
					OFFSET 5.915200 17.612701 -11.592200
					CHANNELS 3 Xrotation Yrotation Zrotation
					JOINT HairE1
					{
						OFFSET 0.289200 -7.171898 -1.284500
						CHANNELS 3 Xrotation Yrotation Zrotation
						End Site
						{
							OFFSET 0.000000 7.291756 0.000000
						}
					}
				}
				JOINT HairF
				{
					OFFSET -0.864800 17.612701 -11.592200
					CHANNELS 3 Xrotation Yrotation Zrotation
					JOINT HairF1
					{
						OFFSET 0.000000 -14.087097 -2.127501
						CHANNELS 3 Xrotation Yrotation Zrotation
						End Site
						{
							OFFSET 0.000000 14.246841 0.000000
						}
					}
				}
				JOINT HairG
				{
					OFFSET -8.087700 17.612701 -11.592200
					CHANNELS 3 Xrotation Yrotation Zrotation
					JOINT HairG1
					{
						OFFSET -0.293600 -6.081398 -0.910100
						CHANNELS 3 Xrotation Yrotation Zrotation
						End Site
						{
							OFFSET 0.000000 6.156120 0.000000
						}
					}
				}
			}
		}
	}
	JOINT Pouch
	{
		OFFSET 0.000000 4.394501 10.847300
		CHANNELS 3 Xrotation Yrotation Zrotation
		End Site
		{
			OFFSET 0.000000 21.880577 0.000000
		}
	}
	JOINT Bag
	{
		OFFSET -13.229000 4.813004 -0.593300
		CHANNELS 3 Xrotation Yrotation Zrotation
		End Site
		{
			OFFSET 0.000000 21.880577 0.000000
		}
	}
	JOINT OccupyGuyFacialAnim_Joint
	{
		OFFSET 1.000000 -70.206398 -1.655000
		CHANNELS 3 Xrotation Yrotation Zrotation
		End Site
		{
			OFFSET 0.000000 21.880577 0.000000
		}
	}
}
MOTION
Frames: 5
Frame Time: 0.016667
-166.114655 70.483627 -6.870008 -0.249683 -1.906011 0.120701 0.000000 -0.000000 0.000000 -8.623931 15.971849 9.798389 13.600670 -10.135703 -0.139008 -8.033902 -11.107203 -6.724392 -0.000000 0.000000 0.000000 -0.000000 0.000000 -0.000000 -3.865493 -9.178669 -7.866497 15.651100 -0.050927 3.528511 -11.993437 -2.305461 3.594301 0.000000 0.000001 0.000000 -0.000000 -0.000000 -0.000000 1.358577 0.266213 0.534659 1.526172 0.604860 0.276834 1.528456 0.599782 0.275481 2.397565 -0.807861 -0.311582 -5.722447 -4.753666 1.062652 0.000000 -0.000000 0.000000 0.000000 -0.000000 0.000000 0.000000 -0.000000 0.000000 0.000000 -0.000000 0.000000 0.000000 -0.000000 0.000000 0.000000 -0.000000 0.000000 0.000000 -0.000000 0.000000 0.000000 -0.000000 0.000000 0.000000 -0.000000 0.000000 0.680081 -3.439143 -11.860521 7.201839 -16.916697 -65.380251 0.000006 -20.680373 -0.000028 -11.810925 -9.230394 8.456954 -4.796949 3.051753 4.543926 15.168962 25.440071 5.455579 0.000000 0.000001 0.000001 -1.456306 0.275394 -37.796727 1.499735 3.915400 -41.904556 -0.000002 0.000001 -0.000002 -0.989836 3.521590 -42.884179 1.912724 4.330584 -47.643728 -0.000001 0.000000 -0.000001 -1.278586 4.236116 -52.701313 2.281782 4.639301 -52.360691 0.000001 0.000001 -0.000001 0.169525 5.868150 -58.032402 2.290185 4.645742 -52.464414 -0.000000 -0.000000 0.000001 0.000002 -0.000000 -0.000000 0.475741 8.188369 13.746935 13.305188 7.816373 61.653338 0.000009 31.239048 -0.000012 -9.883379 4.315935 -8.466872 -3.629455 2.305977 -13.175355 14.001446 -30.265401 1.170802 0.000001 0.000000 0.000002 -0.431365 6.502022 20.288764 1.739988 -3.631884 51.185284 -0.000001 0.000001 0.000004 -1.795544 -0.980971 34.164777 1.353501 -3.284348 44.784594 -0.000001 0.000000 0.000003 -1.346451 -2.158738 38.580450 1.794975 -3.675368 52.048179 0.000004 0.000003 0.000000 -0.503796 -3.831138 44.436760 1.111618 -3.021576 40.388903 -0.000001 0.000000 -0.000003 0.000002 0.000001 0.000000 0.000001 0.000000 0.000000 0.000001 -0.000000 0.000000 0.000001 0.000000 0.000000 0.000001 0.000000 0.000000 0.000001 0.000000 0.000000 0.000001 -0.000000 0.000000 0.000001 0.000000 0.000000 0.000001 0.000000 0.000000 0.000001 0.000000 0.000000 0.000001 -0.000000 0.000000 0.000000 -0.000000 0.000000 0.000000 -0.000000 0.000000 0.000000 -0.000000 0.000000 
-166.100266 70.470978 -6.860396 -0.220941 -1.902390 0.129187 0.000000 0.000000 0.000000 -8.700659 15.963834 9.792843 13.723109 -10.133191 -0.157928 -8.115186 -11.109672 -6.625389 -0.000000 -0.000000 0.000000 -0.000000 -0.000001 -0.000000 -3.934423 -9.222538 -7.914007 15.712587 0.014001 3.547375 -11.980673 -2.307524 3.594931 0.000000 0.000001 0.000000 -0.000000 0.000001 -0.000000 1.367611 0.269864 0.531412 1.531444 0.606262 0.276090 1.533718 0.600987 0.273806 2.333150 -0.807860 -0.344317 -5.803872 -4.814683 1.134473 0.000000 0.000001 -0.000000 0.000000 0.000001 -0.000000 0.000000 0.000001 0.000000 0.000000 0.000001 -0.000000 0.000000 0.000001 -0.000000 0.000000 0.000001 -0.000000 0.000000 0.000001 -0.000000 0.000000 0.000001 -0.000000 0.000000 0.000001 -0.000000 0.675229 -3.107452 -11.968062 6.895881 -17.408919 -64.965590 -0.000005 -21.235278 -0.000012 -11.562172 -8.704121 7.746377 -5.002444 2.936994 4.426653 15.317514 25.259587 5.072965 0.000001 -0.000000 -0.000002 -1.570712 0.351103 -38.821156 1.555510 3.976528 -42.715009 0.000003 0.000002 -0.000003 -1.061512 3.536028 -43.793653 1.991622 4.401020 -48.680134 0.000001 0.000000 -0.000001 -1.391750 4.262016 -53.784403 2.370270 4.705991 -53.446872 -0.000000 -0.000000 -0.000001 0.125763 5.897909 -59.090883 2.390675 4.720994 -53.695160 -0.000001 -0.000001 0.000001 0.000001 0.000001 -0.000001 0.473370 8.054810 13.883101 13.604482 8.269877 60.830887 0.000000 32.298974 0.000019 -9.651775 5.375916 -9.192795 -3.762569 2.514896 -13.410407 14.089913 -30.154609 1.745239 -0.000000 -0.000001 -0.000000 -0.560419 6.702904 20.635257 1.816299 -3.691843 52.380014 -0.000001 -0.000001 0.000002 -1.907310 -0.903915 34.752112 1.406556 -3.336871 45.703302 0.000004 -0.000003 0.000001 -1.442365 -2.098803 39.124642 1.864082 -3.728128 53.118463 0.000005 -0.000001 -0.000004 -0.565018 -3.792878 44.974631 1.150901 -3.067086 41.128483 0.000000 0.000001 0.000001 0.000002 -0.000003 0.000001 -0.000000 0.000000 -0.000000 -0.000000 -0.000000 -0.000000 -0.000000 0.000000 -0.000000 -0.000000 0.000000 -0.000000 -0.000000 0.000000 -0.000000 -0.000000 -0.000000 -0.000000 -0.000000 0.000000 -0.000000 -0.000000 0.000000 -0.000000 -0.000000 0.000000 -0.000000 -0.000000 -0.000000 -0.000000 0.000000 0.000000 0.000000 0.000000 0.000000 0.000000 0.000000 0.000000 0.000000 
-166.081467 70.458649 -6.856075 -0.173629 -1.913599 0.139554 0.000000 -0.000000 -0.000000 -8.802977 15.954700 9.789112 13.860970 -10.130870 -0.182399 -8.217028 -11.093960 -6.521257 0.000000 -0.000000 0.000000 -0.000001 0.000000 -0.000000 -4.035286 -9.243105 -7.958516 15.789804 0.070743 3.550646 -11.980116 -2.312089 3.607038 0.000000 -0.000001 0.000000 0.000000 -0.000000 -0.000001 1.375191 0.282532 0.530165 1.534144 0.618928 0.275134 1.536387 0.613600 0.273539 2.245560 -0.804274 -0.383274 -6.001870 -4.864039 1.193530 0.000000 0.000000 0.000000 0.000000 0.000000 0.000000 0.000000 0.000000 0.000000 0.000000 0.000000 -0.000000 -0.000000 0.000000 -0.000000 0.000000 0.000000 -0.000000 -0.000000 0.000000 -0.000000 0.000000 0.000000 0.000000 0.000000 0.000000 0.000000 0.674981 -2.709238 -11.957099 6.658607 -17.652576 -64.530015 -0.000003 -22.655391 -0.000009 -12.066292 -8.706400 7.052880 -5.209587 2.820749 4.307808 15.466338 25.076348 4.687912 -0.000000 -0.000000 -0.000001 -1.685192 0.430451 -39.850940 1.612449 4.037177 -43.529803 0.000002 -0.000001 -0.000004 -1.134785 3.553198 -44.707806 2.072241 4.470388 -49.722490 -0.000001 -0.000001 -0.000003 -1.507014 4.293107 -54.873125 2.460537 4.771357 -54.539334 -0.000000 0.000000 0.000000 0.080656 5.930759 -60.154951 2.493372 4.794496 -54.933244 -0.000001 0.000001 -0.000001 0.000002 0.000001 -0.000001 0.480197 7.824793 13.908635 13.803059 8.765866 60.021278 0.000005 33.727433 -0.000003 -10.033468 6.711225 -10.260483 -3.896471 2.725665 -13.646564 14.178175 -30.041802 2.323894 -0.000001 0.000000 0.000001 -0.692424 6.904152 20.983530 1.894278 -3.750529 53.581567 -0.000000 0.000000 0.000004 -2.021847 -0.828658 35.342199 1.460749 -3.388812 46.627065 0.000001 0.000002 -0.000001 -1.540414 -2.040383 39.671265 1.934569 -3.779875 54.194894 0.000004 -0.000000 -0.000003 -0.628028 -3.755688 45.514857 1.190960 -3.112317 41.871983 0.000001 0.000001 0.000001 0.000002 -0.000001 0.000001 -0.000000 -0.000000 -0.000000 -0.000000 -0.000000 -0.000000 -0.000000 -0.000000 0.000000 -0.000000 -0.000000 0.000000 -0.000000 -0.000000 -0.000000 -0.000000 -0.000000 -0.000000 -0.000000 -0.000000 0.000000 -0.000000 -0.000000 0.000000 -0.000000 -0.000000 -0.000000 -0.000000 -0.000000 -0.000000 0.000000 -0.000000 -0.000000 0.000000 -0.000000 -0.000000 0.000000 -0.000000 -0.000000 
-166.057602 70.451767 -6.859501 -0.124121 -1.937204 0.153142 0.000000 -0.000000 -0.000000 -8.896738 15.944908 9.774982 13.977894 -10.129373 -0.205221 -8.315818 -11.060444 -6.437047 -0.000000 0.000000 0.000000 -0.000000 -0.000001 0.000001 -4.138394 -9.248229 -8.000200 15.858465 0.118950 3.538788 -12.000407 -2.320155 3.629449 0.000000 0.000000 0.000000 -0.000000 -0.000000 -0.000000 1.383406 0.302168 0.528239 1.538205 0.645311 0.273751 1.540385 0.640241 0.273648 2.156837 -0.796674 -0.417830 -6.316918 -4.882723 1.239700 -0.000000 -0.000000 -0.000000 -0.000000 -0.000000 -0.000000 -0.000000 -0.000000 -0.000000 -0.000000 -0.000000 -0.000000 -0.000000 -0.000000 -0.000000 -0.000000 -0.000000 -0.000000 -0.000000 -0.000000 -0.000000 -0.000000 -0.000000 -0.000000 -0.000000 -0.000000 -0.000000 0.681320 -2.265466 -11.771151 6.596429 -17.554464 -64.079940 -0.000002 -25.201801 -0.000006 -13.999449 -9.246300 6.718634 -5.417911 2.703398 4.187577 15.615095 24.890876 4.301398 0.000000 -0.000000 0.000002 -1.799449 0.513339 -40.883767 1.670420 4.097172 -44.347069 -0.000000 0.000001 -0.000003 -1.209443 3.573142 -45.624557 2.154386 4.538512 -50.768390 -0.000000 0.000001 0.000001 -1.623980 4.329458 -55.964924 2.552307 4.835196 -55.635579 -0.000002 -0.000001 0.000002 0.034385 5.966731 -61.222209 2.597990 4.866012 -56.175786 0.000000 0.000000 -0.000001 0.000000 -0.000001 0.000001 0.498076 7.530342 13.753904 13.999235 9.313926 59.251980 -0.000009 35.758701 0.000006 -11.394869 7.937364 -11.635039 -4.030872 2.937720 -13.883313 14.266056 -29.927403 2.905290 -0.000000 -0.000001 0.000002 -0.827109 7.105269 21.332732 1.973738 -3.807751 54.787164 -0.000004 0.000001 0.000004 -2.138897 -0.755409 35.933711 1.515947 -3.440026 47.553792 -0.000002 0.000001 -0.000002 -1.640358 -1.983661 40.219050 2.006246 -3.830441 55.274989 0.000003 0.000000 -0.000003 -0.692654 -3.719690 46.056198 1.231746 -3.157151 42.617638 0.000001 0.000003 -0.000001 -0.000001 -0.000000 0.000001 -0.000000 -0.000000 -0.000000 -0.000000 0.000000 -0.000000 -0.000000 -0.000000 -0.000000 -0.000000 -0.000000 -0.000000 -0.000000 -0.000000 -0.000000 -0.000000 0.000000 -0.000000 -0.000000 -0.000000 -0.000000 -0.000000 -0.000000 -0.000000 -0.000000 -0.000000 -0.000000 -0.000000 0.000000 -0.000000 0.000000 -0.000000 -0.000000 0.000000 -0.000000 -0.000000 0.000000 -0.000000 -0.000000 
-166.028214 70.454636 -6.873485 -0.089929 -1.965976 0.171079 0.000000 -0.000000 0.000000 -8.944369 15.931515 9.738343 14.028959 -10.129060 -0.217972 -8.374213 -11.010040 -6.400155 -0.000000 0.000000 -0.000000 0.000000 -0.000001 -0.000000 -4.213524 -9.249761 -8.038766 15.893037 0.159855 3.513485 -12.041121 -2.330671 3.659104 -0.000000 0.000001 0.000000 0.000000 0.000001 -0.000000 1.392325 0.323747 0.525851 1.546219 0.684569 0.271725 1.548311 0.680139 0.273104 2.096727 -0.783602 -0.438585 -6.737988 -4.857627 1.284561 -0.000000 0.000000 0.000000 -0.000000 0.000000 0.000000 -0.000000 0.000000 0.000000 -0.000000 0.000000 0.000000 -0.000000 0.000000 0.000000 -0.000000 0.000000 0.000000 -0.000000 0.000000 0.000000 -0.000000 0.000000 0.000000 -0.000000 0.000000 0.000000 0.693741 -1.794104 -11.392938 6.723548 -17.114371 -63.661154 0.000001 -28.975169 0.000002 -17.456194 -10.025059 7.000006 -5.626879 2.585258 4.066287 15.763476 24.703712 3.914357 0.000000 0.000002 0.000001 -1.913132 0.599627 -41.917257 1.729277 4.156386 -45.164923 -0.000001 0.000001 -0.000002 -1.285239 3.595857 -46.541729 2.237849 4.605180 -51.815451 0.000003 0.000001 -0.000001 -1.742274 4.371078 -57.057303 2.645423 4.897331 -56.733050 -0.000001 -0.000000 0.000000 -0.012835 6.005807 -62.290239 2.704286 4.935315 -57.419925 -0.000001 -0.000003 0.000002 0.000001 0.000001 -0.000000 0.524891 7.233766 13.397720 14.296289 9.848248 58.493986 -0.000003 38.634535 0.000004 -13.750264 8.760564 -13.216027 -4.165478 3.150432 -14.120030 14.353465 -29.811833 3.488099 -0.000000 0.000000 0.000006 -0.964238 7.305725 21.682263 2.054484 -3.863329 55.993997 0.000002 0.000000 0.000004 -2.258173 -0.684396 36.525318 1.572006 -3.490389 48.481352 0.000004 0.000002 0.000001 -1.741987 -1.928788 40.766872 2.078947 -3.879705 56.356195 0.000000 0.000000 -0.000002 -0.758711 -3.684961 46.597470 1.273126 -3.201469 43.363751 0.000003 -0.000000 -0.000003 0.000000 -0.000000 -0.000000 -0.000001 0.000000 -0.000000 -0.000000 0.000000 0.000000 -0.000001 0.000000 -0.000000 -0.000001 0.000000 -0.000000 -0.000001 0.000000 -0.000000 -0.000000 0.000000 0.000000 -0.000001 0.000000 -0.000000 -0.000001 0.000000 -0.000000 -0.000001 0.000000 -0.000000 -0.000000 0.000000 0.000000 0.000000 -0.000000 0.000000 0.000000 -0.000000 0.000000 0.000000 -0.000000 0.000000 
